<?xml version="1.0" encoding="UTF-8" standalone="no"?>
<!-- Created with Inkscape (http://www.inkscape.org/) -->

<svg
   xmlns:dc="http://purl.org/dc/elements/1.1/"
   xmlns:cc="http://creativecommons.org/ns#"
   xmlns:rdf="http://www.w3.org/1999/02/22-rdf-syntax-ns#"
   xmlns:svg="http://www.w3.org/2000/svg"
   xmlns="http://www.w3.org/2000/svg"
   xmlns:sodipodi="http://sodipodi.sourceforge.net/DTD/sodipodi-0.dtd"
   xmlns:inkscape="http://www.inkscape.org/namespaces/inkscape"
   width="1024"
   height="1024"
   viewBox="0 0 1024 1024"
   id="svg2"
   version="1.1"
   inkscape:version="0.91 r"
   sodipodi:docname="piGit.svg"
   inkscape:export-filename="/media/dev/www/github/gitWatch/logo/piGit.png"
   inkscape:export-xdpi="90"
   inkscape:export-ydpi="90">
  <sodipodi:namedview
     id="base"
     pagecolor="#ffffff"
     bordercolor="#666666"
     borderopacity="1.0"
     inkscape:pageopacity="0.0"
     inkscape:pageshadow="2"
     inkscape:zoom="0.35"
     inkscape:cx="-137.45812"
     inkscape:cy="514.28571"
     inkscape:document-units="px"
     inkscape:current-layer="layer2"
     showgrid="false"
     units="px"
     inkscape:window-width="1884"
     inkscape:window-height="1126"
     inkscape:window-x="36"
     inkscape:window-y="49"
     inkscape:window-maximized="1" />
  <defs
     id="defs4" />
  <metadata
     id="metadata7">
    <rdf:RDF>
      <cc:Work
         rdf:about="">
        <dc:format>image/svg+xml</dc:format>
        <dc:type
           rdf:resource="http://purl.org/dc/dcmitype/StillImage" />
        <dc:title />
      </cc:Work>
    </rdf:RDF>
  </metadata>
  <g
     transform="translate(0,-28.362161)"
     id="layer1"
     inkscape:groupmode="layer"
     inkscape:label="Layer 1"
     style="display:none">
    <text
       sodipodi:linespacing="125%"
       id="text4155"
       y="677.03284"
       x="108.3904"
       style="color:#000000;font-style:italic;font-variant:normal;font-weight:normal;font-stretch:normal;font-size:482.03134155px;line-height:125%;font-family:'Lobster Two';-inkscape-font-specification:'Lobster Two, Italic';text-indent:0;text-align:start;text-decoration:none;text-decoration-line:none;text-decoration-style:solid;text-decoration-color:#000000;letter-spacing:0px;word-spacing:0px;text-transform:none;direction:ltr;block-progression:tb;writing-mode:lr-tb;baseline-shift:baseline;text-anchor:start;white-space:normal;clip-rule:nonzero;display:inline;overflow:visible;visibility:visible;opacity:1;isolation:auto;mix-blend-mode:normal;color-interpolation:sRGB;color-interpolation-filters:linearRGB;solid-color:#000000;solid-opacity:1;fill:#000000;fill-opacity:1;fill-rule:nonzero;stroke:none;stroke-width:1px;stroke-linecap:butt;stroke-linejoin:miter;stroke-miterlimit:4;stroke-dasharray:none;stroke-dashoffset:0;stroke-opacity:1;color-rendering:auto;image-rendering:auto;shape-rendering:auto;text-rendering:auto;enable-background:accumulate"
       xml:space="preserve"><tspan
         y="677.03284"
         x="108.3904"
         id="tspan4157"
         sodipodi:role="line">pi</tspan></text>
    <text
       sodipodi:linespacing="125%"
       id="text4155-3"
       y="697.76025"
       x="387.71927"
       style="color:#000000;font-style:italic;font-variant:normal;font-weight:bold;font-stretch:normal;font-size:482.03134155px;line-height:125%;font-family:'Lobster Two';-inkscape-font-specification:'Lobster Two, Bold Italic';text-indent:0;text-align:start;text-decoration:none;text-decoration-line:none;text-decoration-style:solid;text-decoration-color:#000000;letter-spacing:0px;word-spacing:0px;text-transform:none;direction:ltr;block-progression:tb;writing-mode:lr-tb;baseline-shift:baseline;text-anchor:start;white-space:normal;clip-rule:nonzero;display:inline;overflow:visible;visibility:visible;opacity:1;isolation:auto;mix-blend-mode:normal;color-interpolation:sRGB;color-interpolation-filters:linearRGB;solid-color:#000000;solid-opacity:1;fill:#000000;fill-opacity:1;fill-rule:nonzero;stroke:none;stroke-width:1px;stroke-linecap:butt;stroke-linejoin:miter;stroke-miterlimit:4;stroke-dasharray:none;stroke-dashoffset:0;stroke-opacity:1;color-rendering:auto;image-rendering:auto;shape-rendering:auto;text-rendering:auto;enable-background:accumulate"
       xml:space="preserve"><tspan
         y="697.76025"
         x="387.71927"
         id="tspan4157-0"
         sodipodi:role="line">G</tspan></text>
    <text
       sodipodi:linespacing="125%"
       id="text4155-3-3"
       y="677.9281"
       x="661.69672"
       style="color:#000000;font-style:italic;font-variant:normal;font-weight:normal;font-stretch:normal;font-size:482.03134155px;line-height:125%;font-family:'Lobster Two';-inkscape-font-specification:'Lobster Two, Italic';text-indent:0;text-align:start;text-decoration:none;text-decoration-line:none;text-decoration-style:solid;text-decoration-color:#000000;letter-spacing:0px;word-spacing:0px;text-transform:none;direction:ltr;block-progression:tb;writing-mode:lr-tb;baseline-shift:baseline;text-anchor:start;white-space:normal;clip-rule:nonzero;display:inline;overflow:visible;visibility:visible;opacity:1;isolation:auto;mix-blend-mode:normal;color-interpolation:sRGB;color-interpolation-filters:linearRGB;solid-color:#000000;solid-opacity:1;fill:#000000;fill-opacity:1;fill-rule:nonzero;stroke:none;stroke-width:1px;stroke-linecap:butt;stroke-linejoin:miter;stroke-miterlimit:4;stroke-dasharray:none;stroke-dashoffset:0;stroke-opacity:1;color-rendering:auto;image-rendering:auto;shape-rendering:auto;text-rendering:auto;enable-background:accumulate"
       xml:space="preserve"><tspan
         y="677.9281"
         x="661.69672"
         id="tspan4157-0-0"
         sodipodi:role="line">it</tspan></text>
  </g>
  <g
     inkscape:groupmode="layer"
     id="layer2"
     inkscape:label="Layer 2"
     style="display:inline">
    <circle
       style="fill:#fb9be9;fill-opacity:1"
       id="path4256"
       cx="511.42856"
       cy="512.57141"
       r="500" />
    <path
       style="color:#000000;font-style:italic;font-variant:normal;font-weight:normal;font-stretch:normal;font-size:482.03134155px;line-height:125%;font-family:'Lobster Two';-inkscape-font-specification:'Lobster Two, Italic';text-indent:0;text-align:start;text-decoration:none;text-decoration-line:none;text-decoration-style:solid;text-decoration-color:#000000;letter-spacing:0px;word-spacing:0px;text-transform:none;direction:ltr;block-progression:tb;writing-mode:lr-tb;baseline-shift:baseline;text-anchor:start;white-space:normal;clip-rule:nonzero;display:inline;overflow:visible;visibility:visible;opacity:1;isolation:auto;mix-blend-mode:normal;color-interpolation:sRGB;color-interpolation-filters:linearRGB;solid-color:#000000;solid-opacity:1;fill:#ffffff;fill-opacity:1;fill-rule:nonzero;stroke:none;stroke-width:1px;stroke-linecap:butt;stroke-linejoin:miter;stroke-miterlimit:4;stroke-dasharray:none;stroke-dashoffset:0;stroke-opacity:1;color-rendering:auto;image-rendering:auto;shape-rendering:auto;text-rendering:auto;enable-background:accumulate"
       d="M 425.22266 283.8125 C 416.22474 283.8125 408.67409 287.02604 402.56836 293.45312 C 396.46263 299.88021 393.4082 307.43281 393.4082 316.10938 C 393.4082 325.10729 396.46263 332.65794 402.56836 338.76367 C 408.67409 344.8694 416.22474 347.92188 425.22266 347.92188 C 433.89922 347.92188 441.45182 344.8694 447.87891 338.76367 C 454.30599 332.65794 457.51953 325.10729 457.51953 316.10938 C 457.51953 307.43281 454.30599 299.88021 447.87891 293.45312 C 441.45182 287.02604 433.89922 283.8125 425.22266 283.8125 z M 188.62891 367.68555 L 108.12891 747.04492 L 159.22461 734.99414 L 186.70117 605.80859 C 191.20013 612.87839 196.50169 618.66315 202.60742 623.16211 C 209.03451 627.33971 216.58711 629.42969 225.26367 629.42969 C 240.04597 629.42969 253.22031 626.85846 264.78906 621.7168 C 276.35781 616.25378 286.48164 609.18438 295.1582 600.50781 C 303.83477 591.50989 311.06523 581.38607 316.84961 570.13867 C 322.95534 558.56992 327.77565 546.68021 331.31055 534.46875 C 334.84544 521.93594 337.41471 509.56302 339.02148 497.35156 C 340.62826 485.1401 341.43164 473.89271 341.43164 463.60938 C 341.43164 448.82708 339.98594 436.45612 337.09375 426.49414 C 334.20156 416.21081 330.18464 407.85482 325.04297 401.42773 C 319.9013 395.00065 313.79636 390.34141 306.72656 387.44922 C 299.65677 384.55703 291.9431 383.11133 283.58789 383.11133 C 272.9832 383.11133 263.0224 385.19935 253.70312 389.37695 C 244.70521 393.2332 236.51029 398.37565 229.11914 404.80273 L 237.31445 367.68555 L 188.62891 367.68555 z M 389.55273 385.52148 L 356.77539 540.25391 C 355.16862 546.68099 354.0431 552.62487 353.40039 558.08789 C 353.07904 563.55091 352.91797 568.53229 352.91797 573.03125 C 352.91797 583.95729 354.20456 593.11667 356.77539 600.50781 C 359.66758 607.57761 363.04023 613.36042 366.89648 617.85938 C 371.07409 622.03698 375.57422 624.93034 380.39453 626.53711 C 385.5362 628.46523 390.51758 629.42969 395.33789 629.42969 C 404.01445 629.42969 411.5651 626.6974 417.99219 621.23438 C 424.41927 615.77135 429.56172 605.32735 433.41797 589.90234 C 430.20443 591.18776 427.31107 591.99115 424.74023 592.3125 C 422.49075 592.63385 420.24167 592.79492 417.99219 592.79492 C 411.5651 592.79492 407.06693 590.70495 404.49609 586.52734 C 402.24661 582.34974 401.12109 576.88711 401.12109 570.13867 C 401.12109 566.92513 401.28216 563.55052 401.60352 560.01562 C 401.92487 556.48073 402.40612 552.94701 403.04883 549.41211 L 438.23828 385.52148 L 389.55273 385.52148 z M 260.45117 414.44336 C 264.62878 414.44336 268.6457 415.24674 272.50195 416.85352 C 276.3582 418.46029 279.89388 421.19062 283.10742 425.04688 C 286.32096 428.90313 288.89023 434.04557 290.81836 440.47266 C 292.74648 446.89974 293.71094 454.93359 293.71094 464.57422 C 293.71094 475.82162 292.4263 489.15703 289.85547 504.58203 C 287.28463 519.68568 282.94557 534.30768 276.83984 548.44727 C 271.05547 562.2655 263.34375 574.15521 253.70312 584.11719 C 244.0625 593.75781 232.01172 598.57812 217.55078 598.57812 C 213.69453 598.57812 209.1944 597.29349 204.05273 594.72266 C 199.23242 592.15182 195.05638 587.81276 191.52148 581.70703 L 222.37109 438.0625 C 227.83412 430.67135 233.61888 424.88659 239.72461 420.70898 C 246.15169 416.53138 253.06002 414.44336 260.45117 414.44336 z "
       id="text4155-0" />
    <path
       style="color:#000000;font-style:italic;font-variant:normal;font-weight:bold;font-stretch:normal;font-size:482.03134155px;line-height:125%;font-family:'Lobster Two';-inkscape-font-specification:'Lobster Two, Bold Italic';text-indent:0;text-align:start;text-decoration:none;text-decoration-line:none;text-decoration-style:solid;text-decoration-color:#000000;letter-spacing:0px;word-spacing:0px;text-transform:none;direction:ltr;block-progression:tb;writing-mode:lr-tb;baseline-shift:baseline;text-anchor:start;white-space:normal;clip-rule:nonzero;display:inline;overflow:visible;visibility:visible;opacity:1;isolation:auto;mix-blend-mode:normal;color-interpolation:sRGB;color-interpolation-filters:linearRGB;solid-color:#000000;solid-opacity:1;fill:#ffffff;fill-opacity:1;fill-rule:nonzero;stroke:none;stroke-width:1px;stroke-linecap:butt;stroke-linejoin:miter;stroke-miterlimit:4;stroke-dasharray:none;stroke-dashoffset:0;stroke-opacity:1;color-rendering:auto;image-rendering:auto;shape-rendering:auto;text-rendering:auto;enable-background:accumulate"
       d="M 620.76172 285.74023 C 594.08932 285.74023 569.98776 291.04375 548.45703 301.64844 C 527.24765 312.25313 509.08998 326.39192 493.98633 344.06641 C 479.20403 361.41953 467.79753 381.50416 459.76367 404.32031 C 451.72982 427.13646 447.71289 450.75677 447.71289 475.17969 C 447.71289 494.13959 449.96198 511.01067 454.46094 525.79297 C 459.28125 540.57526 465.8694 553.10729 474.22461 563.39062 C 482.57982 573.35261 492.37956 581.06432 503.62695 586.52734 C 515.19571 591.99037 527.89075 594.72266 541.70898 594.72266 C 556.16992 594.72266 569.50534 591.67018 581.7168 585.56445 C 593.92826 579.45872 605.01458 569.97917 614.97656 557.125 L 590.875 663.65234 C 587.98281 676.18516 584.76927 686.30898 581.23438 694.02148 C 578.02083 701.73399 574.48711 707.67786 570.63086 711.85547 C 566.77461 716.35443 562.59662 719.24779 558.09766 720.5332 C 553.92005 722.13997 549.58099 722.94336 545.08203 722.94336 C 533.19192 722.94336 524.67682 719.56875 519.53516 712.82031 C 514.71484 706.39323 512.30469 699.00169 512.30469 690.64648 C 512.30469 681.32721 515.03503 672.81211 520.49805 665.09961 C 526.28242 657.38711 535.11966 653.53125 547.00977 653.53125 C 551.18737 653.53125 556.00768 654.33464 561.4707 655.94141 C 566.93372 657.54818 571.43385 660.92083 574.96875 666.0625 C 576.89688 658.99271 577.86133 652.56563 577.86133 646.78125 C 577.86133 639.3901 576.25456 633.60729 573.04102 629.42969 C 570.14883 624.93073 566.45208 621.71719 561.95312 619.78906 C 557.77552 617.53958 553.27734 616.09193 548.45703 615.44922 C 543.63672 614.80651 539.61979 614.48633 536.40625 614.48633 C 524.51614 614.48633 514.39232 616.41328 506.03711 620.26953 C 498.00325 624.12578 491.41706 629.26823 486.27539 635.69531 C 481.13372 641.80104 477.43698 648.70937 475.1875 656.42188 C 472.93802 664.45573 471.81445 672.65065 471.81445 681.00586 C 471.81445 689.36107 472.93802 697.39492 475.1875 705.10742 C 477.75833 713.14128 481.93633 720.21068 487.7207 726.31641 C 493.50508 732.42214 501.05768 737.40351 510.37695 741.25977 C 520.01758 745.11602 532.06836 747.04492 546.5293 747.04492 C 563.23972 747.04492 577.85976 744.15156 590.39258 738.36719 C 603.24675 732.90417 614.33502 725.03138 623.6543 714.74805 C 632.97357 704.46471 640.68529 691.77162 646.79102 676.66797 C 653.2181 661.88567 658.36055 645.33672 662.2168 627.01953 L 701.74219 445.77539 L 644.86328 445.29297 C 640.36432 464.25287 635.06081 480.48164 628.95508 493.97852 C 622.84935 507.47539 616.26315 518.56172 609.19336 527.23828 C 602.44492 535.91485 595.53464 542.34193 588.46484 546.51953 C 581.39505 550.69714 574.48672 552.78516 567.73828 552.78516 C 555.20547 552.78516 544.43932 546.03789 535.44141 532.54102 C 526.44349 518.72278 521.94531 499.28047 521.94531 474.21484 C 521.94531 454.93359 524.83672 435.65235 530.62109 416.37109 C 536.40547 396.76849 544.27825 379.25508 554.24023 363.83008 C 564.20222 348.08372 575.77174 335.39063 588.94727 325.75 C 602.44414 316.10937 616.74401 311.28906 631.84766 311.28906 C 639.88151 311.28906 646.14753 312.5737 650.64648 315.14453 C 655.14544 317.71537 658.52005 320.76784 660.76953 324.30273 C 663.01901 327.51628 664.3056 330.72982 664.62695 333.94336 C 665.26966 337.1569 665.58984 339.56706 665.58984 341.17383 C 665.58984 344.70872 664.94753 348.72565 663.66211 353.22461 C 662.69805 357.40221 661.25234 361.58021 659.32422 365.75781 C 657.39609 369.61406 655.14701 373.14974 652.57617 376.36328 C 650.00534 379.25547 647.27305 381.18242 644.38086 382.14648 C 646.63034 384.71732 649.20156 386.80729 652.09375 388.41406 C 655.30729 390.02083 658.35977 391.30547 661.25195 392.26953 C 664.4655 393.23359 667.51797 393.87591 670.41016 394.19727 C 673.30234 394.51862 675.7125 394.67969 677.64062 394.67969 C 689.85209 394.67969 698.52825 390.50169 703.66992 382.14648 C 708.81159 373.46992 711.38281 363.50912 711.38281 352.26172 C 711.38281 339.7289 708.81159 329.2849 703.66992 320.92969 C 698.52825 312.25312 691.61992 305.34284 682.94336 300.20117 C 674.58815 295.0595 664.94753 291.36471 654.02148 289.11523 C 643.09544 286.86575 632.00912 285.74023 620.76172 285.74023 z "
       id="text4155-3-1" />
    <path
       style="color:#000000;font-style:italic;font-variant:normal;font-weight:normal;font-stretch:normal;font-size:482.03134155px;line-height:125%;font-family:'Lobster Two';-inkscape-font-specification:'Lobster Two, Italic';text-indent:0;text-align:start;text-decoration:none;text-decoration-line:none;text-decoration-style:solid;text-decoration-color:#000000;letter-spacing:0px;word-spacing:0px;text-transform:none;direction:ltr;block-progression:tb;writing-mode:lr-tb;baseline-shift:baseline;text-anchor:start;white-space:normal;clip-rule:nonzero;display:inline;overflow:visible;visibility:visible;opacity:1;isolation:auto;mix-blend-mode:normal;color-interpolation:sRGB;color-interpolation-filters:linearRGB;solid-color:#000000;solid-opacity:1;fill:#ffffff;fill-opacity:1;fill-rule:nonzero;stroke:none;stroke-width:1px;stroke-linecap:butt;stroke-linejoin:miter;stroke-miterlimit:4;stroke-dasharray:none;stroke-dashoffset:0;stroke-opacity:1;color-rendering:auto;image-rendering:auto;shape-rendering:auto;text-rendering:auto;enable-background:accumulate"
       d="M 774.23047 284.70703 C 765.23255 284.70703 757.6819 287.92057 751.57617 294.34766 C 745.47044 300.77474 742.41602 308.32734 742.41602 317.00391 C 742.41602 326.00182 745.47044 333.55443 751.57617 339.66016 C 757.6819 345.76589 765.23255 348.81836 774.23047 348.81836 C 782.90703 348.81836 790.45963 345.76589 796.88672 339.66016 C 803.3138 333.55443 806.52734 326.00182 806.52734 317.00391 C 806.52734 308.32734 803.3138 300.77474 796.88672 294.34766 C 790.45963 287.92057 782.90703 284.70703 774.23047 284.70703 z M 907.65625 313.14844 L 857.52539 319.89648 L 843.06445 386.41602 L 826.67383 386.41602 L 823.30078 403.28711 L 839.68945 403.28711 L 810.28516 541.14844 C 810.2469 541.30145 810.21542 541.45441 810.17773 541.60742 C 803.1666 557.77211 795.68531 570.48106 787.72852 579.71094 C 780.01601 589.03021 772.30235 593.68945 764.58984 593.68945 C 758.48411 593.68945 754.46719 591.44037 752.53906 586.94141 C 750.61094 582.44245 749.64648 577.46107 749.64648 571.99805 C 749.64648 563.96419 750.44987 556.73373 752.05664 550.30664 L 787.24609 386.41602 L 738.56055 386.41602 L 705.7832 541.14844 C 704.49779 546.93281 703.37227 552.87864 702.4082 558.98438 C 701.76549 565.09011 701.44336 571.03398 701.44336 576.81836 C 701.44336 584.20951 702.08763 591.11979 703.37305 597.54688 C 704.97982 603.97396 707.38997 609.59766 710.60352 614.41797 C 713.81706 619.23828 718.15417 623.09414 723.61719 625.98633 C 729.08021 628.87852 735.99049 630.32422 744.3457 630.32422 C 749.48737 630.32422 755.27018 629.35977 761.69727 627.43164 C 768.4457 625.82487 775.35599 621.96901 782.42578 615.86328 C 789.81693 609.75755 797.36758 600.92031 805.08008 589.35156 C 805.99414 587.94239 806.90821 586.46989 807.82227 584.94336 C 809.28254 595.97594 812.50707 605.48497 817.51562 613.45312 C 824.58542 624.70052 835.02942 630.32422 848.84766 630.32422 C 857.52422 630.32422 865.07682 627.59193 871.50391 622.12891 C 877.93099 616.66588 883.07148 606.22188 886.92773 590.79688 C 883.71419 592.08229 880.82279 592.88568 878.25195 593.20703 C 876.00247 593.52839 873.75339 593.68945 871.50391 593.68945 C 864.75547 593.68945 860.09622 591.60143 857.52539 587.42383 C 855.27591 582.92487 854.15039 577.46224 854.15039 571.03516 C 854.15039 564.60807 854.95378 557.69779 856.56055 550.30664 L 887.89258 403.28711 L 925.00977 403.28711 L 928.38281 386.41602 L 891.74805 386.41602 L 907.65625 313.14844 z "
       id="text4155-3-3-2" />
  </g>
</svg>
