<?xml version="1.0" encoding="UTF-8" standalone="no"?>
<!-- Generator: Adobe Illustrator 18.0.0, SVG Export Plug-In . SVG Version: 6.00 Build 0)  -->

<svg
   xmlns:dc="http://purl.org/dc/elements/1.1/"
   xmlns:cc="http://creativecommons.org/ns#"
   xmlns:rdf="http://www.w3.org/1999/02/22-rdf-syntax-ns#"
   xmlns:svg="http://www.w3.org/2000/svg"
   xmlns="http://www.w3.org/2000/svg"
   xmlns:sodipodi="http://sodipodi.sourceforge.net/DTD/sodipodi-0.dtd"
   xmlns:inkscape="http://www.inkscape.org/namespaces/inkscape"
   version="1.1"
   id="Capa_1"
   x="0px"
   y="0px"
   viewBox="0 0 56 56"
   style="enable-background:new 0 0 56 56;"
   xml:space="preserve"
   inkscape:version="0.91 r"
   sodipodi:docname="add.svg"><metadata
     id="metadata47"><rdf:RDF><cc:Work
         rdf:about=""><dc:format>image/svg+xml</dc:format><dc:type
           rdf:resource="http://purl.org/dc/dcmitype/StillImage" /><dc:title></dc:title></cc:Work></rdf:RDF></metadata><defs
     id="defs45" /><sodipodi:namedview
     pagecolor="#ffffff"
     bordercolor="#666666"
     borderopacity="1"
     objecttolerance="10"
     gridtolerance="10"
     guidetolerance="10"
     inkscape:pageopacity="0"
     inkscape:pageshadow="2"
     inkscape:window-width="1920"
     inkscape:window-height="1127"
     id="namedview43"
     showgrid="false"
     inkscape:zoom="11.9198"
     inkscape:cx="31.911368"
     inkscape:cy="25.230855"
     inkscape:window-x="0"
     inkscape:window-y="49"
     inkscape:window-maximized="1"
     inkscape:current-layer="g3" /><g
     id="g3"><path
       d="M 28.707107,4.4228356 C 28.526264,4.2419931 28.276478,4.1300494 28,4.1300493 c -0.552958,-10e-8 -0.999893,0.4469357 -0.999893,0.9998931 l 0,21.8701646 -21.8701649,0 c -0.5529575,0 -0.9998929,0.446935 -0.9998928,0.999893 0,0.275772 0.1117669,0.526088 0.2927862,0.707107 0.1810193,0.181019 0.4313356,0.292786 0.7071069,0.292786 l 21.8701646,0 0,21.870165 c 0,0.275771 0.111767,0.526087 0.292786,0.707107 0.18102,0.181019 0.431336,0.292785 0.707107,0.292786 0.552957,0 0.999893,-0.446936 0.999893,-0.999893 l 0,-21.870165 21.870165,0 c 0.552957,0 0.999893,-0.446936 0.999893,-0.999893 0,-0.276479 -0.111944,-0.526264 -0.292787,-0.707107 -0.180842,-0.180842 -0.430628,-0.292786 -0.707106,-0.292786 l -21.870165,0 0,-21.8701646 c 0,-0.2764788 -0.111944,-0.5262642 -0.292786,-0.7071068 z"
       id="path5"
       inkscape:connector-curvature="0"
       sodipodi:nodetypes="ssccsssscsssscssssccs" /></g><g
     id="g13" /><g
     id="g15" /><g
     id="g17" /><g
     id="g19" /><g
     id="g21" /><g
     id="g23" /><g
     id="g25" /><g
     id="g27" /><g
     id="g29" /><g
     id="g31" /><g
     id="g33" /><g
     id="g35" /><g
     id="g37" /><g
     id="g39" /><g
     id="g41" /></svg>