<?xml version="1.0" encoding="iso-8859-1"?>
<!-- Generator: Adobe Illustrator 19.0.0, SVG Export Plug-In . SVG Version: 6.00 Build 0)  -->
<svg version="1.1" id="Capa_1" xmlns="http://www.w3.org/2000/svg" xmlns:xlink="http://www.w3.org/1999/xlink" x="0px" y="0px"
	 viewBox="0 0 490.2 490.2" style="enable-background:new 0 0 490.2 490.2;" xml:space="preserve">
<g>
	<g>
		<path d="M431.3,262.6V62.1c0-34.2-27.9-62.1-62.1-62.1H121C86.8,0,58.9,27.9,58.9,62.1v200.6c0,34.2,27.9,62.1,62.1,62.1h40.2
			c6.8,0,12.3-5.5,12.3-12.3s-5.5-12.3-12.3-12.3H121c-20.7,0-37.6-16.9-37.6-37.6V62.1c0-20.7,16.9-37.6,37.6-37.6h248.2
			c20.7,0,37.6,16.9,37.6,37.6v200.6c0,20.7-16.9,37.6-37.6,37.6H329c-6.8,0-12.3,5.5-12.3,12.3s5.5,12.3,12.3,12.3h40.2
			C403.5,324.8,431.3,296.9,431.3,262.6z"/>
		<path d="M245.1,206.3c-6.8,0-12.3,5.5-12.3,12.3v229.8l-63-63c-4.8-4.8-12.5-4.8-17.3,0c-4.8,4.8-4.8,12.5,0,17.3l83.9,83.9
			c2.3,2.3,5.4,3.6,8.7,3.6c3.2,0,6.4-1.3,8.7-3.6l83.9-83.9c4.8-4.8,4.8-12.5,0-17.3s-12.5-4.8-17.3,0l-63,63V218.6
			C257.3,211.8,251.9,206.3,245.1,206.3z"/>
	</g>
</g>
<g>
</g>
<g>
</g>
<g>
</g>
<g>
</g>
<g>
</g>
<g>
</g>
<g>
</g>
<g>
</g>
<g>
</g>
<g>
</g>
<g>
</g>
<g>
</g>
<g>
</g>
<g>
</g>
<g>
</g>
</svg>
