<?xml version="1.0" encoding="iso-8859-1"?>
<!-- Generator: Adobe Illustrator 18.0.0, SVG Export Plug-In . SVG Version: 6.00 Build 0)  -->
<!DOCTYPE svg PUBLIC "-//W3C//DTD SVG 1.1//EN" "http://www.w3.org/Graphics/SVG/1.1/DTD/svg11.dtd">
<svg version="1.1" id="Capa_1" xmlns="http://www.w3.org/2000/svg" xmlns:xlink="http://www.w3.org/1999/xlink" x="0px" y="0px"
	 viewBox="0 0 52.496 52.496" style="enable-background:new 0 0 52.496 52.496;" xml:space="preserve">
<path d="M24.07,52.496L1.566,30.114h13.453c-0.092-12.759,5.383-18.767,5.622-19.022C32.105-2.688,48.197,0.252,48.356,0.284
	l2.574,0.5l-2.253,1.341C31.546,12.319,32.442,26.667,32.939,30.114h13.635L24.07,52.496z M6.414,32.114L24.07,49.676l17.656-17.562
	H31.315L31.13,31.35c-0.043-0.177-3.88-17.07,14.022-29.346c-4.86-0.114-15.094,0.894-23.013,10.41
	c-0.091,0.1-5.481,6.089-5.103,18.67l0.03,1.03H6.414z"/>
<g>
</g>
<g>
</g>
<g>
</g>
<g>
</g>
<g>
</g>
<g>
</g>
<g>
</g>
<g>
</g>
<g>
</g>
<g>
</g>
<g>
</g>
<g>
</g>
<g>
</g>
<g>
</g>
<g>
</g>
</svg>
