<?xml version="1.0" encoding="iso-8859-1"?>
<!-- Generator: Adobe Illustrator 19.0.0, SVG Export Plug-In . SVG Version: 6.00 Build 0)  -->
<svg version="1.1" id="Capa_1" xmlns="http://www.w3.org/2000/svg" xmlns:xlink="http://www.w3.org/1999/xlink" x="0px" y="0px"
	 viewBox="0 0 489.3 489.3" style="enable-background:new 0 0 489.3 489.3;" xml:space="preserve">
<g>
	<g>
		<path d="M244.65,0c-6.8,0-12.2,5.5-12.2,12.3V342l-55.9-55.9c-4.8-4.8-12.5-4.8-17.3,0s-4.8,12.5,0,17.3l76.8,76.8
			c2.4,2.4,5.5,3.6,8.7,3.6c3.1,0,6.3-1.2,8.7-3.6l76.8-76.8c4.8-4.8,4.8-12.5,0-17.3s-12.5-4.8-17.3,0l-55.9,55.9V12.3
			C256.95,5.5,251.45,0,244.65,0z"/>
		<path d="M476.25,464.7H13.05c-6.8,0-12.3,5.5-12.3,12.3s5.5,12.3,12.3,12.3h463.2c6.8,0,12.3-5.5,12.3-12.3
			S483.05,464.7,476.25,464.7z"/>
	</g>
</g>
<g>
</g>
<g>
</g>
<g>
</g>
<g>
</g>
<g>
</g>
<g>
</g>
<g>
</g>
<g>
</g>
<g>
</g>
<g>
</g>
<g>
</g>
<g>
</g>
<g>
</g>
<g>
</g>
<g>
</g>
</svg>
