<?xml version="1.0" encoding="iso-8859-1"?>
<!-- Generator: Adobe Illustrator 18.0.0, SVG Export Plug-In . SVG Version: 6.00 Build 0)  -->
<!DOCTYPE svg PUBLIC "-//W3C//DTD SVG 1.1//EN" "http://www.w3.org/Graphics/SVG/1.1/DTD/svg11.dtd">
<svg version="1.1" id="Capa_1" xmlns="http://www.w3.org/2000/svg" xmlns:xlink="http://www.w3.org/1999/xlink" x="0px" y="0px"
	 viewBox="0 0 59.999 59.999" style="enable-background:new 0 0 59.999 59.999;" xml:space="preserve">
<g>
	<path d="M34.792,46.292L24.499,56.585V20.999c0-0.552-0.448-1-1-1s-1,0.448-1,1v35.586L12.206,46.292
		c-0.391-0.391-1.023-0.391-1.414,0s-0.391,1.023,0,1.414l12,12c0.092,0.092,0.203,0.165,0.325,0.216
		c0.122,0.051,0.252,0.077,0.382,0.077s0.26-0.027,0.382-0.077c0.122-0.051,0.233-0.124,0.325-0.216l12-12
		c0.391-0.391,0.391-1.023,0-1.414S35.183,45.901,34.792,46.292z"/>
	<path d="M49.206,12.292l-12-12c-0.092-0.092-0.203-0.165-0.325-0.216c-0.245-0.101-0.52-0.101-0.764,0
		c-0.122,0.051-0.233,0.124-0.325,0.216l-12,12c-0.391,0.391-0.391,1.023,0,1.414c0.195,0.195,0.451,0.293,0.707,0.293
		s0.512-0.098,0.707-0.293L35.499,3.413v35.586c0,0.552,0.448,1,1,1s1-0.448,1-1V3.413l10.293,10.293
		c0.195,0.195,0.451,0.293,0.707,0.293s0.512-0.098,0.707-0.293C49.597,13.315,49.597,12.682,49.206,12.292z"/>
</g>
<g>
</g>
<g>
</g>
<g>
</g>
<g>
</g>
<g>
</g>
<g>
</g>
<g>
</g>
<g>
</g>
<g>
</g>
<g>
</g>
<g>
</g>
<g>
</g>
<g>
</g>
<g>
</g>
<g>
</g>
</svg>
