<?xml version="1.0" encoding="UTF-8" standalone="no"?>
<!-- Generator: Adobe Illustrator 18.0.0, SVG Export Plug-In . SVG Version: 6.00 Build 0)  -->

<svg
   xmlns:dc="http://purl.org/dc/elements/1.1/"
   xmlns:cc="http://creativecommons.org/ns#"
   xmlns:rdf="http://www.w3.org/1999/02/22-rdf-syntax-ns#"
   xmlns:svg="http://www.w3.org/2000/svg"
   xmlns="http://www.w3.org/2000/svg"
   xmlns:sodipodi="http://sodipodi.sourceforge.net/DTD/sodipodi-0.dtd"
   xmlns:inkscape="http://www.inkscape.org/namespaces/inkscape"
   version="1.1"
   id="Capa_1"
   x="0px"
   y="0px"
   viewBox="0 0 56 56"
   style="enable-background:new 0 0 56 56;"
   xml:space="preserve"
   inkscape:version="0.91 r"
   sodipodi:docname="x.svg"><metadata
     id="metadata47"><rdf:RDF><cc:Work
         rdf:about=""><dc:format>image/svg+xml</dc:format><dc:type
           rdf:resource="http://purl.org/dc/dcmitype/StillImage" /></cc:Work></rdf:RDF></metadata><defs
     id="defs45" /><sodipodi:namedview
     pagecolor="#ffffff"
     bordercolor="#666666"
     borderopacity="1"
     objecttolerance="10"
     gridtolerance="10"
     guidetolerance="10"
     inkscape:pageopacity="0"
     inkscape:pageshadow="2"
     inkscape:window-width="1920"
     inkscape:window-height="1127"
     id="namedview43"
     showgrid="false"
     inkscape:zoom="11.9198"
     inkscape:cx="31.911368"
     inkscape:cy="21.875094"
     inkscape:window-x="0"
     inkscape:window-y="49"
     inkscape:window-maximized="1"
     inkscape:current-layer="g3" /><g
     id="g3"><path
       d="m 9,8 c -0.25575,0 -0.5115313,0.097469 -0.7070312,0.2929688 -0.3910001,0.3909999 -0.3910001,1.0230626 0,1.4140624 L 26.585938,28 8.2929688,46.292969 c -0.3910001,0.391 -0.3910001,1.023062 0,1.414062 C 8.4879688,47.902031 8.744,48 9,48 9.256,48 9.5120317,47.902031 9.7070312,47.707031 L 28,29.414062 46.292969,47.707031 C 46.487969,47.902031 46.744,48 47,48 c 0.256,0 0.512031,-0.09797 0.707031,-0.292969 0.391,-0.391 0.391,-1.023062 0,-1.414062 L 29.414062,28 47.707031,9.7070312 c 0.391,-0.391 0.391,-1.0230625 0,-1.4140624 C 47.511531,8.0974687 47.25575,8 47,8 46.74425,8 46.488468,8.0974692 46.292969,8.2929688 L 28,26.585938 9.7070312,8.2929688 C 9.5115312,8.0974687 9.25575,8 9,8 Z"
       id="path5"
       inkscape:connector-curvature="0"
       sodipodi:nodetypes="ssccsssscsssscssssccs" /></g><g
     id="g13" /><g
     id="g15" /><g
     id="g17" /><g
     id="g19" /><g
     id="g21" /><g
     id="g23" /><g
     id="g25" /><g
     id="g27" /><g
     id="g29" /><g
     id="g31" /><g
     id="g33" /><g
     id="g35" /><g
     id="g37" /><g
     id="g39" /><g
     id="g41" /></svg>